<svg data-v-423bf9ae="" xmlns="http://www.w3.org/2000/svg" viewBox="0 0 167.71810925010695 60" class="font"><!----><!----><!----><g data-v-423bf9ae="" id="f6bae15b-3e53-4966-a366-c189d1979d6a" fill="#a40606" transform="matrix(6.711408995047081,0,0,6.711408995047081,-3.758389530083903,-40.134226395228666)"><path d="M3.91 11.52L3.32 11.33L3.32 11.33Q2.70 11.12 2.20 10.90L2.20 10.90L2.20 10.90Q1.69 10.68 1.33 10.37L1.33 10.37L1.33 10.37Q0.97 10.07 0.76 9.64L0.76 9.64L0.76 9.64Q0.56 9.21 0.56 8.60L0.56 8.60L0.56 8.60Q0.56 7.41 1.48 6.69L1.48 6.69L1.48 6.69Q2.39 5.98 4.05 5.98L4.05 5.98L4.05 5.98Q4.65 5.98 5.17 6.06L5.17 6.06L5.17 6.06Q5.68 6.15 6.05 6.32L6.05 6.32L6.05 6.32Q6.43 6.50 6.64 6.77L6.64 6.77L6.64 6.77Q6.85 7.04 6.85 7.41L6.85 7.41L6.85 7.41Q6.85 7.77 6.68 8.03L6.68 8.03L6.68 8.03Q6.51 8.29 6.27 8.47L6.27 8.47L6.27 8.47Q5.96 8.27 5.45 8.13L5.45 8.13L5.45 8.13Q4.93 7.98 4.31 7.98L4.31 7.98L4.31 7.98Q3.68 7.98 3.39 8.16L3.39 8.16L3.39 8.16Q3.09 8.33 3.09 8.60L3.09 8.60L3.09 8.60Q3.09 8.81 3.28 8.94L3.28 8.94L3.28 8.94Q3.46 9.07 3.82 9.18L3.82 9.18L4.56 9.42L4.56 9.42Q5.88 9.84 6.59 10.49L6.59 10.49L6.59 10.49Q7.29 11.14 7.29 12.26L7.29 12.26L7.29 12.26Q7.29 13.45 6.36 14.19L6.36 14.19L6.36 14.19Q5.42 14.92 3.60 14.92L3.60 14.92L3.60 14.92Q2.95 14.92 2.40 14.82L2.40 14.82L2.40 14.82Q1.85 14.71 1.44 14.51L1.44 14.51L1.44 14.51Q1.02 14.31 0.79 14.01L0.79 14.01L0.79 14.01Q0.56 13.71 0.56 13.31L0.56 13.31L0.56 13.31Q0.56 12.91 0.80 12.62L0.80 12.62L0.80 12.62Q1.04 12.33 1.32 12.18L1.32 12.18L1.32 12.18Q1.71 12.49 2.27 12.71L2.27 12.71L2.27 12.71Q2.84 12.94 3.51 12.94L3.51 12.94L3.51 12.94Q4.20 12.94 4.48 12.73L4.48 12.73L4.48 12.73Q4.76 12.52 4.76 12.24L4.76 12.24L4.76 12.24Q4.76 11.96 4.54 11.81L4.54 11.81L4.54 11.81Q4.31 11.66 3.91 11.52L3.91 11.52ZM13.68 14.74L9.93 14.74L9.93 14.74Q9.32 14.74 8.97 14.39L8.97 14.39L8.97 14.39Q8.62 14.04 8.62 13.44L8.62 13.44L8.62 6.20L8.62 6.20Q8.78 6.17 9.11 6.13L9.11 6.13L9.11 6.13Q9.45 6.08 9.76 6.08L9.76 6.08L9.76 6.08Q10.08 6.08 10.33 6.13L10.33 6.13L10.33 6.13Q10.57 6.17 10.74 6.30L10.74 6.30L10.74 6.30Q10.91 6.43 10.99 6.65L10.99 6.65L10.99 6.65Q11.07 6.87 11.07 7.24L11.07 7.24L11.07 12.77L14.28 12.77L14.28 12.77Q14.38 12.92 14.46 13.18L14.46 13.18L14.46 13.18Q14.55 13.44 14.55 13.72L14.55 13.72L14.55 13.72Q14.55 14.28 14.31 14.51L14.31 14.51L14.31 14.51Q14.07 14.74 13.68 14.74L13.68 14.74ZM21.81 12.61L21.81 12.61L21.81 12.61Q21.63 12.77 21.34 12.86L21.34 12.86L21.34 12.86Q21.06 12.95 20.68 12.95L20.68 12.95L20.68 12.95Q20.17 12.95 19.85 12.82L19.85 12.82L19.85 12.82Q19.52 12.70 19.42 12.39L19.42 12.39L19.42 12.39Q19.03 11.16 18.77 10.40L18.77 10.40L18.77 10.40Q18.52 9.63 18.38 9.06L18.38 9.06L18.31 9.06L18.31 9.06Q18.27 9.88 18.25 10.56L18.25 10.56L18.25 10.56Q18.23 11.24 18.22 11.89L18.22 11.89L18.22 11.89Q18.21 12.53 18.19 13.19L18.19 13.19L18.19 13.19Q18.17 13.85 18.13 14.64L18.13 14.64L18.13 14.64Q17.95 14.71 17.65 14.76L17.65 14.76L17.65 14.76Q17.36 14.81 17.07 14.81L17.07 14.81L17.07 14.81Q16.45 14.81 16.11 14.62L16.11 14.62L16.11 14.62Q15.76 14.42 15.76 13.90L15.76 13.90L16.17 6.76L16.17 6.76Q16.28 6.58 16.66 6.37L16.66 6.37L16.66 6.37Q17.04 6.16 17.72 6.16L17.72 6.16L17.72 6.16Q18.47 6.16 18.89 6.39L18.89 6.39L18.89 6.39Q19.31 6.62 19.50 7.14L19.50 7.14L19.50 7.14Q19.63 7.48 19.78 7.91L19.78 7.91L19.78 7.91Q19.92 8.34 20.07 8.81L20.07 8.81L20.07 8.81Q20.22 9.27 20.36 9.72L20.36 9.72L20.36 9.72Q20.50 10.18 20.61 10.54L20.61 10.54L20.68 10.54L20.68 10.54Q21.01 9.37 21.35 8.27L21.35 8.27L21.35 8.27Q21.69 7.17 21.97 6.43L21.97 6.43L21.97 6.43Q22.18 6.31 22.51 6.24L22.51 6.24L22.51 6.24Q22.83 6.16 23.24 6.16L23.24 6.16L23.24 6.16Q23.93 6.16 24.36 6.36L24.36 6.36L24.36 6.36Q24.79 6.57 24.86 6.94L24.86 6.94L24.86 6.94Q24.92 7.22 24.98 7.81L24.98 7.81L24.98 7.81Q25.05 8.39 25.12 9.11L25.12 9.11L25.12 9.11Q25.19 9.84 25.26 10.65L25.26 10.65L25.26 10.65Q25.33 11.47 25.39 12.22L25.39 12.22L25.39 12.22Q25.45 12.96 25.49 13.59L25.49 13.59L25.49 13.59Q25.54 14.21 25.55 14.55L25.55 14.55L25.55 14.55Q25.31 14.69 25.05 14.75L25.05 14.75L25.05 14.75Q24.79 14.81 24.39 14.81L24.39 14.81L24.39 14.81Q23.86 14.81 23.49 14.63L23.49 14.63L23.49 14.63Q23.13 14.45 23.10 13.92L23.10 13.92L23.10 13.92Q23.02 12.39 23.00 11.17L23.00 11.17L23.00 11.17Q22.97 9.95 22.93 9.13L22.93 9.13L22.86 9.13L22.86 9.13Q22.72 9.67 22.46 10.50L22.46 10.50L22.46 10.50Q22.19 11.33 21.81 12.61Z"></path></g><!----><!----></svg>